<svg width="24" height="24" viewBox="0 0 24 24" fill="none" xmlns="http://www.w3.org/2000/svg">
<path d="M16.9688 9.75H7.03125C6.87593 9.75 6.75 9.62407 6.75 9.46875V8.625C6.75 8.00367 7.25367 7.5 7.875 7.5H9V6.28125C9 6.12593 9.12593 6 9.28125 6H10.2188C10.3741 6 10.5 6.12593 10.5 6.28125V7.5H13.5V6.28125C13.5 6.12593 13.6259 6 13.7812 6H14.7188C14.8741 6 15 6.12593 15 6.28125V7.5H16.125C16.7463 7.5 17.25 8.00367 17.25 8.625V9.46875C17.25 9.62407 17.1241 9.75 16.9688 9.75ZM7.03125 10.5H16.9688C17.1241 10.5 17.25 10.6259 17.25 10.7812V16.875C17.25 17.4963 16.7463 18 16.125 18H7.875C7.25367 18 6.75 17.4963 6.75 16.875V10.7812C6.75 10.6259 6.87593 10.5 7.03125 10.5ZM14.8429 12.7488L14.1827 12.0832C14.0733 11.9729 13.8952 11.9722 13.7849 12.0816L11.2997 14.5468L10.222 13.4605C10.1126 13.3502 9.93455 13.3495 9.82427 13.4589L9.15872 14.1191C9.04845 14.2285 9.04772 14.4066 9.15712 14.5168L11.0931 16.4685C11.2025 16.5787 11.3805 16.5795 11.4908 16.47L14.8413 13.1465C14.9516 13.0371 14.9523 12.859 14.8429 12.7488Z" fill="#DADCE2"/>
</svg>
