<svg width="24" height="24" viewBox="0 0 24 24" fill="none" xmlns="http://www.w3.org/2000/svg">
<path d="M13.0608 12.0002L16.2659 8.79506L16.9269 8.1341C17.0244 8.03659 17.0244 7.87815 16.9269 7.78065L16.2197 7.07344C16.1222 6.97594 15.9637 6.97594 15.8662 7.07344L12.0002 10.9395L8.1341 7.07313C8.03659 6.97562 7.87815 6.97562 7.78065 7.07313L7.07313 7.78034C6.97562 7.87784 6.97562 8.03628 7.07313 8.13379L10.9395 12.0002L7.07313 15.8662C6.97562 15.9637 6.97562 16.1222 7.07313 16.2197L7.78034 16.9269C7.87784 17.0244 8.03628 17.0244 8.13378 16.9269L12.0002 13.0608L15.2053 16.2659L15.8662 16.9269C15.9637 17.0244 16.1222 17.0244 16.2197 16.9269L16.9269 16.2197C17.0244 16.1222 17.0244 15.9637 16.9269 15.8662L13.0608 12.0002Z" fill="#C2C5CC"/>
</svg>
