<svg width="27" height="27" viewBox="0 0 27 27" fill="none" xmlns="http://www.w3.org/2000/svg">
<path d="M20.0758 20.0834C20.4647 19.6945 20.4647 19.0639 20.0758 18.675L14.8659 13.4651L20.4158 7.91516C20.7856 7.54535 20.7856 6.94577 20.4158 6.57597C20.046 6.20616 19.4464 6.20616 19.0766 6.57597L13.5267 12.1259L8.3245 6.92369C7.93559 6.53479 7.30506 6.53479 6.91615 6.92369C6.52725 7.3126 6.52725 7.94313 6.91615 8.33204L12.1184 13.5342L6.57657 19.076C6.20676 19.4458 6.20676 20.0454 6.57657 20.4152C6.94637 20.785 7.54595 20.785 7.91576 20.4152L13.4575 14.8734L18.6675 20.0834C19.0564 20.4723 19.6869 20.4723 20.0758 20.0834Z" fill="#112A85"/>
</svg>
