<svg width="14" height="16" viewBox="0 0 14 16" fill="none" xmlns="http://www.w3.org/2000/svg">
<path d="M12.8222 5.64126L11.1717 15.495C11.1458 15.6364 11.0713 15.7642 10.9611 15.8565C10.8509 15.9487 10.7118 15.9995 10.5681 16H2.98075C2.83704 15.9995 2.69803 15.9487 2.5878 15.8565C2.47758 15.7642 2.40308 15.6364 2.37721 15.495L0.726713 5.64126C0.712496 5.55356 0.717421 5.46383 0.741151 5.37821C0.764881 5.2926 0.806854 5.21313 0.864189 5.14526C0.921524 5.0774 0.992864 5.02274 1.07331 4.98504C1.15376 4.94734 1.24141 4.9275 1.33025 4.92687H12.2063C12.2962 4.92571 12.3852 4.94424 12.4672 4.98115C12.5491 5.01807 12.622 5.07248 12.6807 5.14056C12.7394 5.20864 12.7825 5.28874 12.8069 5.37524C12.8314 5.46174 12.8366 5.55254 12.8222 5.64126ZM13.5489 3.07929C13.5489 3.24263 13.484 3.39927 13.3685 3.51477C13.253 3.63027 13.0964 3.69515 12.933 3.69515H0.615858C0.452523 3.69515 0.295877 3.63027 0.180381 3.51477C0.064885 3.39927 0 3.24263 0 3.07929C0 2.91596 0.064885 2.75931 0.180381 2.64381C0.295877 2.52832 0.452523 2.46343 0.615858 2.46343H3.69515V0.615858C3.69515 0.452523 3.76004 0.295877 3.87553 0.180381C3.99103 0.0648849 4.14767 0 4.31101 0H9.23788C9.40121 0 9.55786 0.0648849 9.67335 0.180381C9.78885 0.295877 9.85373 0.452523 9.85373 0.615858V2.46343H12.933C13.0964 2.46343 13.253 2.52832 13.3685 2.64381C13.484 2.75931 13.5489 2.91596 13.5489 3.07929ZM8.62202 2.46343V1.23172H4.92687V2.46343H8.62202Z" fill="#123FDD"/>
</svg>
